<svg xmlns="http://www.w3.org/2000/svg" viewBox="0 0 70.866 70.866" width="20mm" height="20mm"><path d="M45.2 8.137a5.696 5.696 0 00-.363.017c-4.845.836-7.51 5.96-7.896 10.478-.564 4.1 1.243 9.37 5.745 10.289.653.124 1.331.068 1.97-.105 5.42-1.818 7.846-8.239 7.063-13.556-.229-3.436-2.818-7.17-6.518-7.123zm-20.542.22c-3.013.074-5.36 3.13-5.838 6.002-1.006 5.69 1.583 12.762 7.512 14.562.555.12 1.129.133 1.69.046 4.008-.668 5.706-5.16 5.538-8.788-.12-4.784-2.607-10.317-7.575-11.662a4.704 4.704 0 00-1.327-.16zM58.33 24.52c-5.212.313-8.785 5.514-9.295 10.37-.689 3.501 1.178 8.187 5.175 8.467 5.571-.07 9.374-6.023 9.53-11.147.354-3.388-1.643-7.502-5.41-7.69zm-45.621 1.155c-2.218-.018-4.398 1.31-5.123 3.563-1.933 6.03 1.949 13.667 8.335 14.934 2.666.456 5.008-1.59 5.669-4.053 1.4-5.269-1.476-11.385-6.345-13.777a5.258 5.258 0 00-2.536-.667zm23.366 10.812c-4.347.009-8.762 2.215-11.577 5.5-3.04 3.828-5.53 8.282-6.505 13.112-1.184 3.476 1.499 7.479 5.216 7.503 4.472.123 8.315-2.947 12.76-3.175 3.773-.575 7.15 1.387 10.543 2.672 2.888 1.235 6.878.761 8.353-2.347 1.159-3.167-.548-6.545-1.962-9.358-2.883-4.566-5.974-9.365-10.703-12.216-1.895-1.174-4.001-1.695-6.125-1.691z"/></svg>