<svg xmlns="http://www.w3.org/2000/svg" viewBox="0 0 20 20" height="20mm" width="20mm"><path d="M17.573 10.204h-4.421m4.42 2.934s-2.21.734-4.42 0m4.42-2.934s.737 1.467 0 2.934m-4.42-2.934s-.737 1.467 0 2.934M11.678 10.204h-4.42m4.42 2.934s-2.21.734-4.42 0m4.42-2.934s.737 1.467 0 2.934m-4.42-2.934s-.737 1.467 0 2.934" fill="#fff" fill-rule="evenodd" stroke="#000" stroke-width=".2" stroke-linecap="round" stroke-linejoin="round"/><path d="M13.339 10.204h-1.66M12.839 10.937h-1.044M17.573 10.204l-4.421-3.669s-.737 0-.737.734v.734M7.258 10.204L2.837 6.535s-.737 0-.737.734v.734" fill="none" stroke="#000" stroke-width=".2"/><path d="M17.544 10.384h-4.392L13 11.699l.152 1.44 2.119.289 2.273-.29.232-1.435zM11.65 10.384H7.258l-.152 1.315.152 1.44 2.118.289 2.274-.29.232-1.435z" stroke="#000300" stroke-width=".2" stroke-linecap="round" stroke-linejoin="round"/></svg>