<svg xmlns="http://www.w3.org/2000/svg" width="20mm" height="20mm" viewBox="0 0 20 20"><g transform="translate(0 -277)" stroke="#000" stroke-width=".2" stroke-linejoin="round"><circle cx="9.998" cy="281.801" r="2.701"/><path d="M9.998 294.9a5.401 6.892 0 004.677-3.446 5.401 6.892 0 000-6.892 5.401 6.892 0 00-4.677-3.445v6.891zM9.998 294.9a5.401 6.892 0 01-4.677-3.446 5.401 6.892 0 010-6.892 5.401 6.892 0 014.677-3.445v6.891z" fill="#fff"/><ellipse cx="-63.841" cy="273.081" rx=".566" ry=".466" transform="rotate(-15)" fill="#fff"/><ellipse cy="267.879" cx="83.149" rx=".566" ry=".466" transform="rotate(15)" fill="#fff"/><ellipse cx="80.732" cy="272.202" rx=".745" ry=".838" transform="rotate(15.001) skewX(.002)"/><ellipse cx="11.476" cy="287.844" rx=".978" ry="1.071"/><ellipse ry=".838" rx=".745" cy="284.608" cx="-62.334" transform="rotate(-15.001) skewX(-.002)"/><ellipse transform="rotate(15.001) skewX(.002)" ry=".838" rx=".745" cy="279.432" cx="81.649"/><ellipse transform="rotate(-15.001) skewX(-.002)" cx="-61.418" cy="277.378" rx=".745" ry=".838"/><ellipse ry="1.071" rx=".978" cy="287.844" cx="8.52"/><path d="M12.832 282.093l.757-.426v-.605M14.379 283.98l1.415.175.493-1.01M7.104 282.1l-.71-.46v-.605M5.604 283.952l-1.415.176-.493-1.01M3.368 288.9H4.62m-1.252 0l.176 1.415-1.011.493M16.632 288.9h-1.284m1.284 0l-.176 1.415 1.011.493" fill="none" stroke-linecap="round"/></g></svg>