<svg xmlns="http://www.w3.org/2000/svg" width="20mm" height="20mm" viewBox="0 0 20 20"><g transform="translate(-.068 -277.054)" stroke="#000" stroke-width=".2" stroke-linecap="round" stroke-linejoin="round"><path d="M16.69 288.772l1.278-.09-.128-1.519-.894-.386-1.816-.437-1.38-.206-2.148-1.03-.856-.27-1.279-.18-1.214-.026-1.38.18-1.624.335-1.943.682-.908.039-.064 1.428-.127.283-.039.335.32.605s1.738.334 1.687.334l12.515-.077z" fill="none"/><ellipse cx="-15.36" cy="288.36" rx="1.113" ry="1.12" transform="scale(-1 1)" fill="#fff"/><ellipse cy="288.36" cx="-5.548" rx="1.113" ry="1.12" transform="scale(-1 1)" fill="#fff"/><path d="M12.957 286.327l-3.554-.077v-1.223l.55.077 1.01.232.716.258.83.45zM5.71 286.237l3.693.013v-1.223l-1.073-.026-1.304.206-.818.27-.46.348z" fill="none"/></g></svg>