<svg xmlns="http://www.w3.org/2000/svg" viewBox="0 0 70.866 70.866" width="20mm" height="20mm"><g transform="matrix(.45857 0 0 .44321 -619.848 -813.238)" stroke="#000" stroke-linecap="round" stroke-linejoin="round" stroke-width="1.572"><circle transform="matrix(.13154 0 0 .12871 1192 1658.7)" cx="1512.5" cy="2084.72" r="175" fill="none" stroke-width="12.081"/><path d="M1415.3 1880.3l-24.345 47.122" fill="none"/><circle transform="matrix(.4374 0 0 .428 803.67 1111.1)" cx="1342.701" cy="1906.441" r="4.719" stroke-width="3.633"/><path d="M1409.3 1895.6l22.206 31.372M1415.6 1880.1h9.703" fill="none"/><circle transform="matrix(.13154 0 0 .12871 1268 1658.7)" cx="1512.5" cy="2084.72" r="175" fill="none" stroke-width="12.081"/><path d="M1431.3 1926.6l9.262-32.509M1433.5 1894.8l5.585-1.207 8.117-.196M1431.8 1927h35.918" fill="none"/><circle transform="matrix(.4374 0 0 .428 879.63 1111.1)" cx="1342.701" cy="1906.441" r="4.719" stroke-width="3.633"/></g></svg>