<svg xmlns="http://www.w3.org/2000/svg" viewBox="0 0 75.591 75.591" width="20mm" height="20mm"><g stroke-width="4.762"><path d="M33.538 41.241a4.607 4.607 0 00-3.242-3.188v3.188z"/><path d="M66.907 35.354c-1.486-7.76-4.966-20.484-13.782-20.233-5.698.162-4.414 6.01-14.052 5.058-.136.205-2.324.205-2.46 0-9.639.952-8.355-4.896-14.053-5.058-8.816-.251-12.296 12.474-13.783 20.233-1.894 9.896-3.036 28.792 8.109 24.493 1.248-.482 15.331-9.08 17.025-9.08h7.865c1.694 0 15.777 8.596 17.025 9.08 10.728 4.164 10.001-14.597 8.105-24.493zM16.8 31.307c0-2.402 1.977-4.35 4.415-4.35 2.44 0 4.415 1.948 4.415 4.35 0 2.402-1.976 4.35-4.415 4.35-2.437.002-4.414-1.947-4.414-4.35zm16.994 12.17l-.051.198a4.807 4.807 0 01-3.447 3.375l-.3.071a4.88 4.88 0 01-.918.089c-.314 0-.62-.032-.918-.089l-.333-.079a4.808 4.808 0 01-3.413-3.367l-.085-.368a4.676 4.676 0 01-.083-.858c0-.293.031-.579.083-.857l.08-.35a4.806 4.806 0 013.418-3.386l.237-.06a4.903 4.903 0 012.028 0l.204.052a4.806 4.806 0 013.451 3.395l.047.179c.074.331.117.674.117 1.028 0 .35-.042.695-.118 1.027zm20.188-15.735c.958 0 1.735.765 1.735 1.71 0 .944-.777 1.71-1.735 1.71-.959 0-1.736-.766-1.736-1.71-.002-.945.775-1.71 1.735-1.71zm-7.306 18.74c-2.435 0-4.408-1.945-4.408-4.343 0-2.4 1.973-4.344 4.408-4.344 2.437 0 4.41 1.945 4.41 4.344 0 2.398-1.974 4.344-4.41 4.344zm3.835-11.903c-.96 0-1.736-.766-1.736-1.71s.777-1.71 1.736-1.71c.958 0 1.735.766 1.735 1.71s-.777 1.71-1.735 1.71zm3.47 3.42c-.958 0-1.735-.765-1.735-1.71 0-.943.777-1.709 1.736-1.709.958 0 1.735.766 1.735 1.71s-.777 1.709-1.734 1.709zm3.47-3.42c-.959 0-1.736-.766-1.736-1.71s.777-1.71 1.735-1.71c.959 0 1.736.766 1.736 1.71 0 .945-.776 1.71-1.736 1.71z"/><path d="M30.296 46.843a4.608 4.608 0 003.237-3.17h-3.237v3.171zM24.624 43.675a4.607 4.607 0 003.204 3.161v-3.161h-3.205zM27.826 38.062a4.607 4.607 0 00-3.208 3.18h3.208v-3.18z"/></g></svg>