<svg xmlns="http://www.w3.org/2000/svg" viewBox="0 0 70.866 70.866" width="20mm" height="20mm"><g transform="translate(0 -959.605)" fill="#fff" stroke="#000" stroke-width=".709" stroke-linecap="round" stroke-linejoin="round"><path d="M34.461 999.184c0 8.66 14.715 15.914 3.715 15.914s-19.927-7.029-19.927-15.69l16.212-.224z"/><path d="M32.435 990.443c0 8.66 14.715 15.914 3.715 15.914s-19.927-7.029-19.927-15.69c0-8.66 8.927-15.689 19.927-15.689s-3.715 6.805-3.715 15.465z"/><path d="M27.368 979.911c-11 0-19.927 7.029-19.927 15.69 0 8.66 8.927 15.689 19.927 15.689 6.482 0 12.241-2.443 15.881-6.22 3.626 3.904 9.483 6.444 16.092 6.444 11 0-3.715-7.253-3.715-15.914 0-8.66 14.715-15.465 3.715-15.465-6.482 0-12.24 2.442-15.88 6.22-3.626-3.905-9.483-6.444-16.093-6.444z"/><ellipse cx="13.183" cy="992.011" rx="2.139" ry="2.017"/><path d="M10.369 1003.218l3.225-1.205"/></g></svg>