<svg xmlns="http://www.w3.org/2000/svg" width="20mm" height="20mm" viewBox="0 0 20 20"><g stroke="#000" stroke-width=".2" stroke-linecap="round" stroke-linejoin="round"><path d="M10.052 15.466l.522.152m-.522-.152a.68.751 14.987 01-.497.54.68.751 14.987 01-.656-.176.68.751 14.987 01-.16-.716m1.835.504a1.224 1.268 14.963 01-.875.903 1.224 1.268 14.963 01-1.182-.317 1.224 1.268 14.963 01-.307-1.22m2.103-5.745l-1.574 5.875m1.045-6.005L8.21 14.985m5.175-4.673s1.26-.215 2.257.638M11.13 9.674s1.258-.215 2.256.638M8.872 9.036s1.259-.215 2.257.638M6.615 8.397s1.259-.214 2.257.639M4.358 7.759s1.259-.215 2.257.638m9.027 2.553s1.259-.215 2.257.638m-.611-2.285l.61 2.285M2.102 7.121s1.26-.215 2.257.639M2.101 7.12l1.646-1.647m0 0s9.484-6.555 13.54 3.83" fill="none"/></g></svg>