<svg xmlns="http://www.w3.org/2000/svg" width="20mm" height="20mm" viewBox="0 0 20 20"><path d="M6.264 12.512l6.418.962m1.344-1.363c-.261 0-6.611-.208-6.611-.208m2.138-1.294l4.794.18h-.18l.18-.02m-3.029-1.363l3.71.1m-2.005-1.101h2.106m-.421-.942l1.043.1m-2.728.842l1.685-.942.28-.821m-1.965 1.763l.842-1.443m-2.547 2.444l1.224-2.484m-3.49 3.807l2.066-3.827m-3.51 4.708l2.126-4.488m-3.47 5.39L7.97 7.463m-2.166 5.29l7.22-4.348m-10.89 6.153l3.67-1.806.642-4.568.2.24.08-.52.1.1.081-.781.24.34-.02-.48.141.24.04-.782.26.321.081-.521.24.14.121-.5.24.06.402-.421.1.32.562-.4.22.26.502-.38-.08.34.882-.601.26.42.342-.18.22.34.26-.42.141.26.381-.16.301.361.321-.22.1.24.662-.22-.06.38 1.123-.36-.06.32 1.003-.32-.06.34.862-.32v.34l.28-.28.06.2.643-.02-.341.28.1.04-.28.141.16.14-.502.14.281.381-.561.3.38.361-.42.08.1.3-.401.121.4.28-.42.341.2.14-.381.1.461.301-.501.481.16.22-.26.441.3.3-.521.401.16.28-.521.201.24.541-.641.22.3.301-.44.18.28.401-.722.08.442.642s-.743-.1-.763-.1c-.02 0 .18.22.18.22l-.48-.08.24.28h-.902s.34.24.26.24c-.08 0-1.002-.04-1.002-.04l.521.381-1.785-.36.08.28-1.664-.601.2.34-3.71-1.663-3.71 1.786z" fill="none" stroke="#000" stroke-width=".265" stroke-linecap="round"/></svg>