<svg xmlns="http://www.w3.org/2000/svg" width="20mm" height="20mm" viewBox="0 0 20 20"><g stroke="#000" stroke-linecap="round" stroke-linejoin="round"><path d="M14.716 8.241v.477h.012m.556-.495v.82m-.568-.802s.32-.266.568-.018M5.284 8.241v.477h-.012m-.556-.495v.82m.568-.802s-.32-.266-.568-.018M12.716 7.655v.477h.012m.556-.495v.82m-.568-.802s.32-.266.568-.018M7.284 7.655v.477h-.012m-.556-.495v.82m.568-.802s-.32-.266-.568-.018" fill="none" stroke-width=".2"/><g stroke-width=".166" fill="#fffff9" fill-rule="evenodd"><path d="M10.728 282.003c-.75-2.796-1.456 0-1.456 0m0 0v3.188l-5.828 1.562v.838h5.828l.113 4.705s-1.662.999-1.627.94c.034-.06 2.077-.236 2.077-.236m.317 0s2.056.175 2.09.235c.035.06-1.627-.94-1.627-.94l.113-4.704h5.828v-.838l-5.828-1.562v-3.188s-.707-2.796-1.456 0m.272 0s.472-1.133.905 0M10.295 292.17L10 293.8m-.295-1.63L10 293.8" transform="matrix(1.20498 0 0 1.205 -2.05 -336.174)"/></g></g></svg>