<svg xmlns="http://www.w3.org/2000/svg" viewBox="0 0 70.866 70.866" width="20mm" height="20mm"><g stroke="#000" stroke-width="1.568"><path transform="matrix(.89702 0 0 .36983 875.046 -432.233)" d="M-905.016 1241.983h-61.968l15.492-26.833 15.492-26.833 15.492 26.833z" stroke-width="1.23" stroke-linecap="round" stroke-linejoin="round"/><path d="M703.35 171.65v74h-7.625v10h116v-10h-7.594v-74h-11.094v74H714.44v-74h-11.094z" stroke-linecap="round" stroke-linejoin="round" transform="matrix(.45077 0 0 .4531 -304.02 -52.34)"/><g fill-rule="evenodd"><path d="M755.79 233.98c9.095-6.28 18.187-5.467 27.282 2.688V197.26c-4.963-4.45-9.944-6.723-14.907-6.875-4.128-.126-8.247 1.285-12.375 4.125v39.47zM750.79 194.51c-4.128-2.84-8.279-4.251-12.407-4.125-4.963.152-9.912 2.425-14.875 6.875v39.406c9.095-8.155 18.187-8.968 27.282-2.688V194.51z" transform="matrix(.45077 0 0 .4531 -303.825 -53.44)"/></g></g></svg>