<svg xmlns="http://www.w3.org/2000/svg" viewBox="0 0 75.591 75.591" width="20mm" height="20mm"><path d="M37.79 50.643c-.433.4-.928 5.404-6.934 6.89-2.252.558-4.356.17-6.364-.903-7.16-3.822-11.932-12.619-5.38-15.124.98-.375 2.006-.555 3.03-.75.124-.023.256-.033.383-.123-.753-.56-9.182.086-13.649-8.085-1.457-2.664-2.012-9.424-.05-12.457.546-.842 1.364-1.268 2.31-1.516C21.17 15.94 32.3 20.383 36.179 26.21c.849 1.276 1.227 2.265 1.573 3.448.005.016.023.03.037.047.077-.038.078-.116.094-.179 2.38-9.012 16.83-13.727 26.83-10.873 3.989 1.138 3.696 8.27 2.632 12.286-.691 2.61-3.41 6.179-7.525 8.008-1.19.53-2.45.834-3.72 1.102-2.698.57-3 .391-3.007.585-.007.157 1.514.279 2.872.703 9.322 2.91-1.473 16.301-8.928 16.453-1.386.028-2.714-.277-3.99-.817-3.662-1.552-4.562-4.564-5.144-6.147-.024-.065-.04-.137-.112-.184z" stroke-width="39.966"/></svg>