<svg xmlns="http://www.w3.org/2000/svg" viewBox="0 0 70.866 70.866" version="1.0" width="20mm" height="20mm"><path d="M25.984 9.106L16.535 25.48l11.549 6.656 7.35-12.73 2.56 4.53-3.054 1.77 11.748-.131 3.905-6.594 2.063-3.511-3.081 1.774-4.693-8.137zM54.331 25.48l-11.649 6.724 7.087 12.468-4.819.03v-3.412L43.045 44.7l-3.87 6.824v.03l3.77 6.662 2.005 3.543v-3.543h9.38l9.45-16.373zm-45.638 6.43l3.118 1.8-4.724 8.137 9.448 16.373h18.898V44.77l-14.698.095 2.593-4.494 3.081 1.775-5.968-10.105z" stroke-width=".709" stroke="#000"/></svg>