<svg xmlns="http://www.w3.org/2000/svg" width="20mm" height="20mm" viewBox="0 0 70.866 70.866"><g transform="matrix(.12865 0 0 .15806 88.004 -27.018)" stroke-width="4.97"><path d="M-622.233 317.076c90.441-46.197 140.35-75.555 228.38-74.826 87.046.722 54.92 54.465 42.01 63.694-30.279 21.643-32.133 57.665 13.296 21.542 52.702-41.907 60.764-41.292 76.635-30.213 9.878 6.894 13.806 30.864 15.757 36.069 1.952 5.205 3.904 7.808 3.904 7.808s-14.314-.65-20.17 0c-5.856.65-23.131 7.006-30.143 16.704-8.297 11.477-25.813 35.136 15.178 31.882 40.991-3.253 101.502 9.973 83.284 67.23-18.218 57.258-119.72 81.332-161.362 87.188-41.642 5.856-76.778 3.253-76.778 3.253s27.058-36.308 37.172-52.928c7.563-12.43 14.23-19.294 14.23-19.294s-27.327 5.855-45.546 6.506c-18.218.65-58.74-4.274-88.064-2.673-11.077.604-32.957 4.625-32.957 4.625s-3.254-16.917-12.363-34.485c-9.11-17.567-29.28-46.196-29.28-46.196s42.293 8.458 70.922 7.808c28.629-.65 57.908-11.712 24.725-39.04-33.184-27.327-81.332-39.69-92.393-43.593-11.061-3.904-36.437-11.061-36.437-11.061z" fill="#000003" stroke="#000"/><ellipse transform="skewX(-4.086) scale(1 -.99746)" cx="291.438" cy="319.199" rx="4.604" ry="5.619" fill="#fff"/></g></svg>