<svg xmlns="http://www.w3.org/2000/svg" width="20mm" height="20mm" viewBox="0 0 20 20"><path d="M4.12 285.969c-.312-1.515.628-3.007 2.142-3.398 1.514-.392 3.074.453 3.554 1.924m-.227-.45a2.956 2.956 0 013.121-.352 2.948 2.948 0 011.672 2.656m-.12-1.009a3.156 3.156 0 013.58 2.512 3.151 3.151 0 01-2.392 3.672H5.211c-1.578-.24-2.818-1.457-3.066-3.011a3.603 3.603 0 011.979-3.795" fill="#fff" stroke="#000" stroke-linecap="round" stroke-linejoin="round" transform="matrix(.74684 0 0 .74448 2.532 -205.594)" stroke-width=".268"/><path d="M8.043 12.138L6.1 15.346M9.622 12.138l-1.943 3.208M12.78 12.138l-1.944 3.208M11.2 12.138l-1.943 3.208" fill="none" stroke="#000" stroke-width=".2" stroke-dasharray="1.19999998,1.19999998"/></svg>