<svg xmlns="http://www.w3.org/2000/svg" viewBox="0 0 20 20" height="20mm" width="20mm"><path d="M2.427 10.204h4.421m-4.42 2.934s2.21.734 4.42 0m-4.42-2.934s-.737 1.467 0 2.934m4.42-2.934s.737 1.467 0 2.934M8.322 10.204h4.42m-4.42 2.934s2.21.734 4.42 0m-4.42-2.934s-.737 1.467 0 2.934m4.42-2.934s.737 1.467 0 2.934" fill="none" stroke="#000" stroke-width=".2" stroke-linecap="round" stroke-linejoin="round"/><path d="M6.661 10.204h1.66M7.161 10.937h.91M2.427 10.204l4.421-3.669s.737 0 .737.734v.734M12.742 10.204l4.421-3.669s.737 0 .737.734v.734" fill="none" stroke="#000" stroke-width=".2"/></svg>