<svg xmlns="http://www.w3.org/2000/svg" width="20mm" height="20mm" viewBox="0 0 20 20"><path d="M5.837 17.898h4.571m-4.571 0v-1.83s-.23-.754-.486-1.936c-.258-1.182.04-2.66-.246-5.103-.226-1.922-.374-3.898-.29-3.991.137-.15.429-.27.701.027.272.296.362 3.445.548 3.726.186.28.245.365.406.053.125-.24-.473-5.242-.254-5.582.22-.34.593-.22.7 0 .119.242.543 5.303.696 5.462.224.232.73.272.981.067.237-.194.821-6.13 1.016-6.457.196-.328.8-.295.915 0 .115.295-.826 6.337-.669 6.443.157.107.224.096.42-.026.196-.123.458-5.174.588-5.57.068-.206.6-.616.914 0 .314.617-.454 6.485-.454 6.485s-.217 1.185.107 1.508c.323.323.7.08.7.08l1.021-1.589.915-1.83c1.828-.914.914.916.914.916l-2.743 5.488-1.829 1.83v1.83" fill="none" stroke="#000" stroke-width=".2" stroke-linecap="round" stroke-linejoin="round"/></svg>