<svg xmlns="http://www.w3.org/2000/svg" viewBox="0 0 20 20" height="20mm" width="20mm"><path d="M12.203 2.676h4.266s2.662 14.648-1.331 14.648h-2.935m0-14.648H6.878S6.69 3.717 6.48 5.339c0 0-3.815.088-3.815 1.42 0 1.332-.231 6.521 3.314 6.521v0c.031 2.95.574 4.044 2.23 4.044h3.994M6.02 11.997s-.937.469-1.581-.319c-.79-.966-1.399-4.807-.395-5.272 2.016-.96 2.313-.33 2.236.265-.137 1.246-.224 3.951-.26 5.326z" fill-rule="evenodd" stroke="#000" stroke-width=".265" stroke-linecap="round" stroke-linejoin="round"/></svg>