<svg xmlns="http://www.w3.org/2000/svg" viewBox="0 0 75.591 75.591" width="20mm" height="20mm"><path d="M318.64 168.37c-7.078-36.95-23.653-97.553-65.638-96.356-27.137.772-21.021 28.623-66.923 24.088-.647.979-11.067.979-11.715 0-45.901 4.535-39.787-23.316-66.924-24.088-41.985-1.197-58.559 59.406-65.639 96.356-9.022 47.13-14.46 137.12 38.615 116.65 5.947-2.295 73.014-43.244 81.082-43.244h37.454c8.069 0 75.14 40.937 81.082 43.244 51.09 19.83 47.63-69.52 38.6-116.65zM80.01 149.1c0-11.439 9.414-20.714 21.026-20.714 11.614 0 21.026 9.275 21.026 20.714 0 11.439-9.413 20.713-21.026 20.713-11.608.01-21.022-9.27-21.022-20.71zm80.932 57.96l-.246.939c-2.129 7.854-8.426 14.021-16.414 16.076l-1.427.337a23.238 23.238 0 01-4.372.423 23.23 23.23 0 01-4.372-.423l-1.588-.376c-7.912-2.098-14.138-8.239-16.252-16.037l-.407-1.752a22.27 22.27 0 01-.395-4.084c0-1.396.148-2.758.395-4.085l.384-1.662c2.091-7.843 8.333-14.021 16.275-16.126l1.131-.287a23.344 23.344 0 014.829-.512c1.657 0 3.27.183 4.829.512l.97.247c8.019 2.063 14.331 8.272 16.436 16.167l.223.852c.354 1.579.555 3.213.555 4.896 0 1.67-.2 3.31-.56 4.89zm96.14-74.94c4.564 0 8.265 3.646 8.265 8.142 0 4.497-3.7 8.142-8.265 8.142-4.563 0-8.264-3.645-8.264-8.142-.01-4.5 3.69-8.14 8.26-8.14zm-34.79 89.25c-11.598 0-20.996-9.263-20.996-20.687 0-11.424 9.398-20.688 20.996-20.688 11.602 0 21 9.265 21 20.688 0 11.423-9.4 20.69-21 20.69zm18.26-56.69c-4.566 0-8.266-3.646-8.266-8.143 0-4.497 3.699-8.142 8.266-8.142 4.563 0 8.264 3.645 8.264 8.142s-3.7 8.14-8.26 8.14zm16.53 16.29c-4.563 0-8.264-3.646-8.264-8.142 0-4.496 3.699-8.142 8.264-8.142 4.565 0 8.265 3.646 8.265 8.142 0 4.496-3.7 8.14-8.26 8.14zm16.52-16.29c-4.563 0-8.263-3.645-8.263-8.141 0-4.497 3.7-8.143 8.263-8.143 4.565 0 8.268 3.646 8.268 8.143 0 4.5-3.7 8.14-8.27 8.14z" fill="none" stroke="#000" transform="matrix(.20649 0 0 .20563 .628 .788)" stroke-width="3.668"/><ellipse cx="21.562" cy="31.753" rx="3.957" ry="3.94" stroke="#000" stroke-width=".756" stroke-linecap="round" stroke-linejoin="round"/><path d="M27.992 41.178l.06-2.952 1.188-.512 1.165.512.015 2.95h3.004l.547 1.2-.547 1.198-3.004-.016v2.913l-1.057.535-1.383-.535.013-2.911h-2.96l-.407-1.21.407-1.187z" fill-rule="evenodd"/><ellipse ry="3.94" rx="3.957" cy="42.223" cx="46.737" stroke="#000" stroke-width=".756" stroke-linecap="round" stroke-linejoin="round"/><ellipse cx="50.264" cy="33.102" rx="1.201" ry="1.195" stroke="#000" stroke-width=".756" stroke-linecap="round" stroke-linejoin="round"/><ellipse ry="1.195" rx="1.201" cy="29.891" cx="53.754" stroke="#000" stroke-width=".756" stroke-linecap="round" stroke-linejoin="round"/><ellipse cx="57.197" cy="33.195" rx="1.201" ry="1.195" stroke="#000" stroke-width=".756" stroke-linecap="round" stroke-linejoin="round"/><ellipse ry="1.195" rx="1.201" cy="36.267" cx="53.614" stroke="#000" stroke-width=".756" stroke-linecap="round" stroke-linejoin="round"/></svg>