<svg xmlns="http://www.w3.org/2000/svg" width="20mm" height="20mm" viewBox="0 0 20 20"><g fill="#fff" stroke="#000" stroke-width=".2" stroke-linejoin="round"><path d="M3.3 13.7h3.8v1.8H3.3zM7.1 13.7h3.8v1.8H7.1z"/><path d="M5.3 11.9h3.8v1.8H5.3zM1.5 11.9h3.8v1.8H1.5zM12.9 11.9h3.8v1.8h-3.8zM9.1 11.9h3.8v1.8H9.1z"/><path d="M14.7 13.7h3.8v1.8h-3.8zM10.9 13.7h3.8v1.8h-3.8zM14.7 10.1h3.8v1.8h-3.8zM3.3 10.1h3.8v1.8H3.3z"/><path d="M1.5 8.3h3.8v1.8H1.5zM12.9 8.3h3.8v1.8h-3.8zM9.1 8.3h3.8v1.8H9.1zM5.3 8.3h3.8v1.8H5.3z"/><path d="M10.9 10.1h3.8v1.8h-3.8zM7.1 10.1h3.8v1.8H7.1zM1.5 10.1h1.8v1.8H1.5zM1.5 13.7h1.8v1.8H1.5zM16.7 8.3h1.8v1.8h-1.8zM16.7 11.9h1.8v1.8h-1.8zM3.3 6.5h3.8v1.8H3.3zM7.1 6.5h3.8v1.8H7.1zM14.7 6.5h3.8v1.8h-3.8zM10.9 6.5h3.8v1.8h-3.8zM1.5 6.5h1.8v1.8H1.5zM9.3 4.7h3.8v1.8H9.3zM1.5 4.7h3.8v1.8H1.5zM16.7 4.7h1.8v1.8h-1.8z"/></g></svg>