<svg xmlns="http://www.w3.org/2000/svg" viewBox="0 0 70.866 70.866" width="20mm" height="20mm"><path d="M31.547 33.628c-2.43.862-4.576 1.41-7.658 2.391 1.208 15.408 15.358 9.265 7.658-2.39zm-.7-2.795c.041-2.141-.07-4.205.837-6.24 1.03-2.182 1.195-4.096.625-7.265-1.036-5.765-3.227-9.358-6.185-10.148-6.31-.94-7.092 5.386-7.245 10.013-.348 2.59 1.796 13.672 4.39 15.549 2.548-.666 5.05-1.319 7.577-1.91zM39.319 52.191c2.43.862 4.576 1.41 7.658 2.391-1.21 15.406-15.358 9.265-7.658-2.391zm.7-2.795c-.04-2.141.07-4.204-.837-6.24-1.03-2.182-1.194-4.096-.625-7.265 1.037-5.765 3.227-9.358 6.185-10.148 6.31-.94 7.092 5.386 7.245 10.013.348 2.59-1.796 13.672-4.39 15.549-2.547-.666-5.05-1.319-7.577-1.91z"/></svg>