<svg xmlns="http://www.w3.org/2000/svg" width="20mm" height="20mm" viewBox="0 0 20 20"><g fill="none" stroke="#000" stroke-width=".2" stroke-linecap="round" transform="translate(0 -277)"><path d="M12.725 283.233L2.1 281.513l1.153 10.58 9.617 2.799-.145-11.659" stroke-linejoin="round"/><ellipse transform="matrix(.81122 -.58473 .57919 .8152 0 0)" ry="1.203" rx=".893" cy="238.18" cx="-160.818" stroke-linejoin="bevel"/><ellipse cx="-160.985" cy="233.535" rx=".893" ry="1.203" transform="matrix(.81122 -.58473 .57919 .8152 0 0)" stroke-linejoin="bevel"/><ellipse transform="matrix(.81122 -.58473 .57919 .8152 0 0)" ry="1.203" rx=".893" cy="238.604" cx="-164.343" stroke-linejoin="bevel"/><ellipse cx="-156.948" cy="237.681" rx=".893" ry="1.203" transform="matrix(.81122 -.58473 .57919 .8152 0 0)" stroke-linejoin="bevel"/><ellipse transform="matrix(.81122 -.58473 .57919 .8152 0 0)" ry="1.203" rx=".893" cy="242.941" cx="-160.497" stroke-linejoin="bevel"/><path d="M12.725 283.233l5.175-2.99-9-1.136-6.8 2.405 10.625 1.721z" stroke-linejoin="round"/><path d="M12.87 294.892l4.82-4.898.21-9.751-5.175 2.99.145 11.659" stroke-linejoin="round"/><path d="M11.68 280.775a.31 1.166 87.127 01-1.149.37.31 1.166 87.127 01-1.18-.253.31 1.166 87.127 011.149-.369.31 1.166 87.127 011.18.252z" stroke-linejoin="bevel"/><ellipse transform="matrix(.98064 .1958 -.20333 .97911 0 0)" ry="1.18" rx=".479" cy="278.429" cx="73.626" stroke-linejoin="bevel"/><ellipse cx="74.073" cy="274.648" rx=".479" ry="1.18" transform="matrix(.98064 .1958 -.20333 .97911 0 0)" stroke-linejoin="bevel"/><ellipse cx="73.026" cy="283.007" rx=".479" ry="1.18" transform="matrix(.98064 .1958 -.20333 .97911 0 0)" stroke-linejoin="bevel"/></g></svg>