<svg xmlns="http://www.w3.org/2000/svg" viewBox="0 0 75.591 75.591" width="20mm" height="20mm"><g transform="matrix(.02323 0 0 .02303 5.724 21.357)" stroke-width="32.681"><path d="M2660.868 713.631s-573.076 638.384-1280 638.384-1280-638.384-1280-638.384 573.076-638.384 1280-638.384 1280 638.384 1280 638.384z" fill="none" stroke="#000"/><circle cx="1380.868" cy="713.631" r="638.384" fill="none" stroke="#000"/><path d="M1705.456 496.798c-4.914 86.16-76.33 154.517-163.72 154.517-90.575 0-164-73.425-164-164 0-68.349 41.817-126.924 101.258-151.559-31.353-8.118-64.234-12.441-98.125-12.441-215.566 0-390.317 174.751-390.317 390.316 0 215.565 174.751 390.316 390.317 390.316s390.316-174.751 390.316-390.316c-.001-80.236-24.216-154.813-65.729-216.833z"/></g></svg>