<svg xmlns="http://www.w3.org/2000/svg" width="20mm" height="20mm" viewBox="0 0 20 20"><g stroke="#000" stroke-width=".2"><path d="M14.364 12.374h1.325m-6.627-1.766l5.302.002m0 1.764V10.61m1.325 0h.884m-.884 1.764V10.61m.884 1.764H17.9m-1.326 0V10.61m1.326 1.764V9.392m-8.837 0h8.837m-8.837 1.216a3.508 3.501 0 01-3.76 2.88A3.508 3.501 0 012.1 10a3.508 3.501 0 013.202-3.488 3.508 3.501 0 013.76 2.88m-.776.63a2.609 2.604 0 01-2.609 2.603 2.609 2.604 0 01-2.608-2.603 2.609 2.604 0 012.608-2.604 2.609 2.604 0 012.609 2.604z" fill-rule="evenodd" stroke-linecap="round"/><path stroke-linejoin="round" d="M9.062 9.392h7.511v1.218H9.062zM16.573 9.392h1.326v2.982h-1.326zM14.364 10.61h1.326v1.764h-1.326z"/></g></svg>