<svg xmlns="http://www.w3.org/2000/svg" width="20mm" height="20mm" viewBox="0 0 20 20"><g stroke-width=".203" fill="none" stroke="#000"><path d="M9.122 288.685l8.925-8.925m-7.039 1.886l5.153 5.153m-5.153-5.153l-1.886 7.039m7.039-1.886l-7.039 1.886m7.039-1.886l1.886-7.04m-7.039 1.887l7.039-1.886" stroke-linecap="round" stroke-linejoin="round" transform="matrix(.98543 0 0 .98545 -.54 -273.588)"/><path d="M9.122 288.685s-1.834-.5-2.076.556c-.243 1.056 1.414 2.01-1.297 2.94-2.711.928-1.532 1.38-1.055 2.258.477.88-1.355 1.356-1.355 1.356" transform="matrix(.98543 0 0 .98545 -.54 -273.588)"/><path d="M3.343 293.52l2 1v-1l-2 1zM5.91 290.916l.133 2.232.866-.5-1.866-1.232zM6.112 289.19l2 1v-1l-2 1z" transform="matrix(.98543 0 0 .98545 -.54 -273.588)"/></g></svg>