<svg xmlns="http://www.w3.org/2000/svg" viewBox="0 0 20 20" height="20mm" width="20mm"><g color="#000" font-weight="400" font-family="sans-serif" stroke-width="15.716"><path style="line-height:normal;font-variant-ligatures:normal;font-variant-position:normal;font-variant-caps:normal;font-variant-numeric:normal;font-variant-alternates:normal;font-feature-settings:normal;text-indent:0;text-align:start;text-decoration-line:none;text-decoration-style:solid;text-decoration-color:#000;text-transform:none;text-orientation:mixed;white-space:normal;shape-padding:0;isolation:auto;mix-blend-mode:normal;solid-color:#000;solid-opacity:1" d="M9.465 2C5.16 2 4.655 6.625 5.471 7.894c.7 1.085-1.012-5.152 4.314-5.204 2.347-.023 4.358 2.058 4.4 4.36.037 1.973-1.392 3.96-2.634 5.354-.71.798-1.251 1.776-1.246 2.863.005 1.062-.702 1.962-1.848 2.004-1.223.046-2.1-1.122-1.85-2.134.77-3.118-2.108.829.542 2.522 1.215.776 3.32.189 3.65-1.358.258-1.212.337-2.492 1.282-3.451 1.537-1.559 2.99-4.034 2.747-6.327C14.555 3.949 12.515 2 9.465 2z" overflow="visible"/><path style="line-height:normal;font-variant-ligatures:normal;font-variant-position:normal;font-variant-caps:normal;font-variant-numeric:normal;font-variant-alternates:normal;font-feature-settings:normal;text-indent:0;text-align:start;text-decoration-line:none;text-decoration-style:solid;text-decoration-color:#000;text-transform:none;text-orientation:mixed;white-space:normal;shape-padding:0;isolation:auto;mix-blend-mode:normal;solid-color:#000;solid-opacity:1" d="M8.792 3.844c-1.364.41-3.114 2.636-1.882 5.363.226.502.546-.372.462-.744-.154-.688 3.478.609 1.16 2.54-1.358 1.132-.786 2.98-.628 2.188.1-.5.299-.999.72-1.323 2.325-1.795 1.337-4.061-.444-4.127-1.528-.056-1.189-1.72-.056-1.617.565.052 1.133.383 1.293.933.096.327.888 1.19.775.564-.185-1.025-1.13-1.93-1.844-2.126-.504-.139.37-.617.628-.726.892-.378 2.078-.156 2.631.69.55.843.767 1.923.539 2.888-.595 2.507-2.462 3.143-2.382 3.778.14 1.111.274.026 1.383-.936.864-.75 1.392-1.943 1.557-2.44 1.093-3.29-1.478-5.638-3.912-4.905z" overflow="visible"/></g></svg>