<svg xmlns="http://www.w3.org/2000/svg" width="20mm" height="20mm" viewBox="0 0 20 20"><g fill="none" stroke="#000"><g stroke-width=".243"><path d="M9.068 293.054l4-.5M9.068 292.054l4-.5M9.068 291.054l4-.5M9.568 293.554h3M10.568 294.054h1M9.068 290.054s-1-4-2-5-2-4-1-6 5-2 5-2" transform="matrix(.82218 0 0 .82163 .9 -223.851)"/><path d="M13.068 290.054s1-4 2-5 2-4 1-6-5-2-5-2" transform="matrix(.82218 0 0 .82163 .9 -223.851)"/></g><path d="M4.667 9.32l-1.778.887M3.778 6.657H2M4.667 3.994L2.889 2.218M15.333 9.32l1.778.887M16.222 6.657H18M15.333 3.994l1.778-1.776M8 8l1 1 1-1 1 1 1-1" stroke-width=".2"/></g></svg>