<svg xmlns="http://www.w3.org/2000/svg" width="20mm" height="20mm" viewBox="0 0 20 20"><path d="M6.85 12.373a.892.892 0 00-.892-.892.892.892 0 00-.892.892.892.892 0 00.892.892.892.892 0 00.892-.892zm-.623 3.856l-.27-.982m1.438-.385l.257.985m.795-2.037l.985.258m-.6-1.695l.982.27m-.652-2.432l-.715.725M7.395 9.884l.724-.716m-2.431-.651l.27.982m-1.438.385l-.257-.985m-1.78 1.78l.985.257m-.385 1.437l-.982-.27m.652 2.432l.715-.725m.328 1.768l.724-.716m4.912-.794a3.866 3.865 0 00.382-1.425m-3.587 3.586a3.866 3.865 0 001.425-.382m-4.9-1.312a3.866 3.865 0 001.044 1.043m-1.313-4.9a3.866 3.865 0 00-.382 1.425m3.587-3.586a3.866 3.865 0 00-1.425.382m4.9 1.313a3.866 3.865 0 00-1.044-1.044m-.724 5.694a2.874 2.874 0 001.052-1.052M4.52 14.862a2.874 2.874 0 001.438.385m-2.875-2.874a2.874 2.874 0 00.385 1.437M4.52 9.884a2.874 2.874 0 00-1.052 1.052m3.927-1.052a2.874 2.874 0 00-1.437-.385m2.874 2.874a2.874 2.874 0 00-.385-1.437M14.174 8.616a1.12 1.12 0 00-1.12-1.12 1.12 1.12 0 00-1.122 1.12 1.12 1.12 0 001.121 1.12 1.12 1.12 0 001.121-1.12zm-.782 4.845l-.339-1.233m1.806-.484l.324 1.237m.998-2.56l1.238.324m-.754-2.129l1.234.339M17.08 5.9l-.899.91M14.86 5.488l.91-.899m-3.055-.818l.34 1.233m-1.807.484l-.323-1.237M8.688 6.487l1.237.323m-.483 1.806l-1.234-.339m.819 3.055l.898-.91m.412 2.22l.91-.898m6.172-.999a4.857 4.857 0 00.48-1.79m-4.507 4.506a4.857 4.857 0 001.79-.48m-6.155-1.649a4.857 4.857 0 001.31 1.31m-1.65-6.155a4.857 4.857 0 00-.479 1.79m4.506-4.506a4.857 4.857 0 00-1.79.48M17.08 5.9a4.857 4.857 0 00-1.31-1.312m-.91 7.155a3.612 3.612 0 001.321-1.322m-4.934 1.322a3.612 3.612 0 001.806.484M9.442 8.616a3.612 3.612 0 00.483 1.806m1.322-4.934A3.612 3.612 0 009.925 6.81m4.934-1.322a3.612 3.612 0 00-1.806-.484m3.612 3.612a3.612 3.612 0 00-.484-1.806" fill="none" stroke="#000" stroke-width=".2" stroke-linecap="round" stroke-linejoin="round" stroke-dashoffset="7.559"/></svg>