<svg xmlns="http://www.w3.org/2000/svg" viewBox="0 0 70.866 70.866" version="1.0" width="20mm" height="20mm"><g transform="translate(0 -57.134)" stroke="#000" stroke-width=".709" stroke-linejoin="round"><path d="M54.777 77.707c-2.257 0-4.058 1.798-4.058 4.015v4.716c.954.463 2.036.73 3.158.73 4.093 0 7.403-3.433 7.403-7.666 0-.618-.083-1.22-.217-1.795z" fill="#fff"/><path d="M42.45 70.101c-6.02 0-10.903 4.936-10.903 11.013 0 3.505 1.62 6.623 4.15 8.64a45.03 45.03 0 00-4.584-.244c-2.244 0-4.433.205-6.566.518-1.793-3.685-5.97-6.849-9.42-7.816-4.67 5.06-5.583 10.362-5.539 15.088.051 5.496 1.67 9.775 3.964 13.082 5.315 2.933 11.7 4.65 18.552 4.65 5.76 0 11.18-1.214 15.92-3.345 3.03-3.575 4.865-8.15 4.865-13.141 0-3.563-.932-6.905-2.573-9.826a11.015 11.015 0 003.034-7.606c0-6.077-4.881-11.013-10.9-11.013z" fill="#fff"/><ellipse cx="45.189" cy="78.093" rx="1.847" ry="1.737" fill="#050505"/></g></svg>