<svg xmlns="http://www.w3.org/2000/svg" width="20mm" height="20mm" viewBox="0 0 20 20"><g transform="matrix(.99787 0 0 .99786 .021 -277.315)" stroke-width=".2" stroke="#000"><path d="M10.339 287.205l5.134 2.964M10.088 287.638l5.134 2.964" fill="none" stroke-linecap="round" stroke-linejoin="round"/><circle r="1.752" transform="matrix(-.5 .86603 .86603 .5 0 0)" cx="242.306" cy="158.542" fill="#fffff9" stroke-linecap="round" stroke-linejoin="round"/><path d="M9.018 288.286l2.964 5.134M9.451 288.036l2.964 5.134" fill="none" stroke-linecap="round" stroke-linejoin="round"/><circle transform="rotate(-30)" cy="260.158" cx="-137.585" fill="#fffff9" stroke-linecap="round" stroke-linejoin="round" r="1.752"/><path d="M9.018 288.286l-4.07-8.176.108-.062 5.032 7.59z" fill="none" stroke-linecap="round" stroke-linejoin="round"/><circle r="1.251" transform="rotate(-30)" cx="-137.585" cy="260.158" fill="none" stroke-linecap="round" stroke-linejoin="round"/><path d="M10.339 287.205l-8.176-4.07-.063.108 7.59 5.033z" fill="none" stroke-linecap="round" stroke-linejoin="round"/><circle r="1.251" transform="matrix(-.5 .86603 .86603 .5 0 0)" cy="158.542" cx="242.306" fill="none" stroke-linecap="round" stroke-linejoin="round"/><path d="M9.018 288.286c-.088-.015-4.07-8.176-4.07-8.176l.108-.063 5.032 7.591z" fill="#fffff9" fill-rule="evenodd"/><circle cx="9.159" cy="287.183" stroke-linecap="round" stroke-linejoin="round" r=".15"/></g></svg>