<svg xmlns="http://www.w3.org/2000/svg" width="20mm" height="20mm" viewBox="0 0 70.866 70.866"><g transform="matrix(.12865 0 0 .15806 88.004 -27.018)" stroke-width="4.97"><path d="M-195.067 317.076c-90.441-46.197-140.35-75.555-228.38-74.826-87.046.722-54.92 54.465-42.009 63.694 30.278 21.643 32.132 57.665-13.296 21.542-52.703-41.907-60.764-41.292-76.636-30.213-9.878 6.894-13.805 30.864-15.757 36.069-1.952 5.205-3.904 7.808-3.904 7.808s14.314-.65 20.17 0c5.856.65 23.131 7.006 30.143 16.704 8.298 11.477 25.813 35.136-15.178 31.882-40.991-3.253-101.502 9.973-83.284 67.23 18.219 57.258 119.72 81.332 161.363 87.188 41.642 5.856 76.777 3.253 76.777 3.253s-27.057-36.308-37.171-52.928c-7.564-12.43-14.23-19.294-14.23-19.294s27.327 5.855 45.545 6.506c18.218.65 58.74-4.274 88.064-2.673 11.077.604 32.958 4.625 32.958 4.625s3.253-16.917 12.362-34.485c9.11-17.567 29.28-46.196 29.28-46.196s-42.293 8.458-70.922 7.808c-28.629-.65-57.908-11.712-24.725-39.04 33.184-27.327 81.332-39.69 92.393-43.593 11.061-3.904 36.437-11.061 36.437-11.061z" fill="none" stroke="#000"/><ellipse transform="skewX(-4.086) scale(1 .99746)" cx="-525.862" cy="319.199" rx="4.604" ry="5.619"/></g></svg>