<svg xmlns="http://www.w3.org/2000/svg" width="20mm" height="20mm" viewBox="0 0 20 20"><g transform="translate(0 -277)" fill="#fff" stroke="#000" stroke-linecap="round" stroke-linejoin="round"><path d="M12.451 9.958c-.034.03-2.652-.636-2.692-.615-.041.022-.305 2.19-.35 2.202-.046.011-1.729-1.504-1.774-1.514-.044-.01-2.555 1.085-2.595 1.064-.04-.022-.295-2.713-.326-2.746-.03-.033-1.924-.37-1.944-.41-.021-.04 1.156-1.704 1.15-1.75-.007-.044-1.478-1.383-1.474-1.428.004-.045 2.001-1.143 2.02-1.185.019-.042-.556-2.104-.523-2.134.034-.03 1.775.412 1.816.394.042-.018 1.135-2.36 1.182-2.365.047-.006 1.728 1.597 1.773 1.606.046.009 1.77-.796 1.808-.772.038.024.703 1.881.739 1.912.035.03 2.297.82 2.32.86.022.04-1.16 1.705-1.15 1.749.01.044 1.486 1.548 1.474 1.593-.012.044-2.002 1.052-2.02 1.093-.018.04.6 2.415.566 2.446z" transform="matrix(1.39405 0 0 1.39355 -1.44 279.315)" stroke-width=".143"/><circle cx="10" cy="287" r="4.9" stroke-width=".2"/></g></svg>