<svg xmlns="http://www.w3.org/2000/svg" width="20mm" height="20mm" viewBox="0 0 20 20"><path d="M13.15 12.373a.892.892 0 01.892-.892.892.892 0 01.892.892.892.892 0 01-.892.892.892.892 0 01-.892-.892zm.623 3.856l.27-.982m-1.438-.385l-.257.985m-.795-2.037l-.985.258m.6-1.695l-.982.27m.652-2.432l.715.725m1.052-1.052l-.724-.716m2.431-.651l-.27.982m1.438.385l.257-.985m1.78 1.78l-.985.257m.385 1.437l.982-.27m-.652 2.432l-.715-.725m-.328 1.768l-.724-.716m-4.912-.794a3.866 3.865 0 01-.382-1.425m3.587 3.586a3.866 3.865 0 01-1.425-.382m4.9-1.312a3.866 3.865 0 01-1.044 1.043m1.313-4.9a3.866 3.865 0 01.382 1.425m-3.587-3.586a3.866 3.865 0 011.425.382m-4.9 1.313a3.866 3.865 0 011.044-1.044m.724 5.694a2.874 2.874 0 01-1.052-1.052m3.927 1.052a2.874 2.874 0 01-1.438.385m2.875-2.874a2.874 2.874 0 01-.385 1.437M15.48 9.884a2.874 2.874 0 011.052 1.052m-3.927-1.052a2.874 2.874 0 011.437-.385m-2.874 2.874a2.874 2.874 0 01.385-1.437M5.826 8.616a1.12 1.12 0 011.12-1.12 1.12 1.12 0 011.122 1.12 1.12 1.12 0 01-1.121 1.12 1.12 1.12 0 01-1.121-1.12zm.782 4.845l.339-1.233m-1.806-.484l-.324 1.237m-.998-2.56l-1.238.324m.754-2.129l-1.234.339M2.92 5.9l.899.91M5.14 5.488l-.91-.899m3.055-.818l-.34 1.233m1.807.484l.323-1.237m2.236 2.236l-1.237.323m.483 1.806l1.234-.339m-.819 3.055l-.898-.91m-.412 2.22l-.91-.898m-6.172-.999a4.857 4.857 0 01-.48-1.79m4.507 4.506a4.857 4.857 0 01-1.79-.48m6.155-1.649a4.857 4.857 0 01-1.31 1.31m1.65-6.155a4.857 4.857 0 01.479 1.79M7.286 3.771a4.857 4.857 0 011.79.48M2.92 5.9a4.857 4.857 0 011.31-1.312m.91 7.155a3.612 3.612 0 01-1.321-1.322m4.934 1.322a3.612 3.612 0 01-1.806.484m3.611-3.612a3.612 3.612 0 01-.483 1.806M8.753 5.488a3.612 3.612 0 011.322 1.322M5.14 5.488a3.612 3.612 0 011.806-.484M3.335 8.616a3.612 3.612 0 01.484-1.806" fill="none" stroke="#000" stroke-width=".2" stroke-linecap="round" stroke-linejoin="round" stroke-dashoffset="7.559"/><path d="M17.247 14.535l-.715-.725.385-1.437.982-.27-.382-1.424-.985.257-1.052-1.052.257-.985-1.425-.382-.27.982-1.437.385-.724-.716-1.043 1.043.715.725 1.516 1.516.145-.627.6-.351.672.044.395.526.03.454-.19.54-.527.205 1.286 1.62.724.715z" fill-rule="evenodd"/><path d="M10.838 10.211l.715.725-.385 1.437-.982.27.382 1.425.985-.258 1.052 1.052-.257.985 1.425.382.27-.982 1.437-.385.724.716 1.043-1.043-.715-.725-1.516-1.516-.145.627-.6.351-.673-.044-.394-.526-.03-.453.19-.542.527-.204-1.286-1.62-.724-.715zM3.819 10.422l-1.238.323-.48-1.79 1.234-.339.17-.934.314-.872-.9-.91 1.312-1.31.91.898.872-.324.934-.16.339-1.233 1.79.48-.323 1.237.795.661.527.661 1.237-.323.48 1.79-1.234.34-2.72.71.249-.516-.228-.931-.558-.372-.93.082-.497.497-.048.529.255.877z" fill-rule="evenodd"/><path d="M10.075 6.81l1.237-.323.48 1.79-1.234.34-.17.933-.313.872.898.91-1.31 1.31-.91-.898-.872.324-.934.16-.34 1.233-1.79-.48.324-1.237-.796-.661-.526-.661-1.238.323-.48-1.79 1.234-.339 2.72-.712-.248.517.227.931.558.372.931-.082.497-.497.048-.529-.255-.877z" fill-rule="evenodd"/></svg>