<svg xmlns="http://www.w3.org/2000/svg" viewBox="0 0 75.591 75.591" version="1.0" width="20mm" height="20mm"><path d="M55.415 23.893c-.276-4.86-2.165-8.969-5.515-11.934-3.207-2.837-7.505-4.4-12.105-4.4-4.6 0-8.899 1.563-12.105 4.4-3.35 2.966-5.24 7.074-5.515 11.935-2.072.835-3.545 2.857-3.545 5.211v33.306c0 3.092 2.54 5.62 5.644 5.62h31.042c3.105 0 5.644-2.528 5.644-5.62V29.105c0-2.353-1.474-4.375-3.544-5.211zM41.865 55.19c.17.993-.52 1.807-1.532 1.807h-5.076c-1.013 0-1.702-.814-1.533-1.807l1.336-7.827a4.994 4.994 0 01-2.293-4.198c0-2.765 2.251-5.006 5.028-5.006 2.777 0 5.027 2.241 5.027 5.006 0 1.76-.913 3.305-2.292 4.198l1.34 7.825zM23.347 23.483c.792-8.78 7.856-12.802 14.448-12.802 3.831 0 7.39 1.282 10.021 3.612 2.575 2.279 4.089 5.432 4.429 9.19H23.346z"/></svg>