<svg xmlns="http://www.w3.org/2000/svg" width="20mm" height="20mm" viewBox="0 0 20 20"><g fill-rule="evenodd" stroke="#000" stroke-width=".2"><path d="M8.356 16.93l3.288-.41M8.356 16.11l3.288-.412M8.356 15.288l3.288-.411M8.767 17.342h2.466M9.589 17.752h.822"/><path d="M8.356 14.466h3.288L10 3.785l-1.644 10.68m3.288 0s.823-3.286 1.645-4.107c.822-.822 1.644-3.287.822-4.93C13.289 3.785 10 3.785 10 3.785m-1.644 10.68s-.823-3.286-1.645-4.107c-.822-.822-1.644-3.287-.822-4.93C6.711 3.785 10 3.785 10 3.785" stroke-linecap="round" stroke-linejoin="round"/></g></svg>