<svg xmlns="http://www.w3.org/2000/svg" width="20mm" height="20mm" viewBox="0 0 20 20"><g stroke="#000" transform="translate(-.068 -277.054)"><path d="M9.15 286.404l.57 1.009m.126-2.364l-1.329 2.206m-.727-4.727l3.796 4.822" fill="none" stroke-width=".265" stroke-linecap="round"/><ellipse ry="1.219" rx="1.224" cx="13.706" cy="287.586" fill="#fff" stroke-width=".2" stroke-linejoin="round"/><ellipse ry="1.219" rx="1.224" cy="285.632" cx="13.896" fill="#fff" stroke-width=".2" stroke-linejoin="round"/><path d="M10.7 284.734c.127 0 2.025.252 2.025.252M7.062 281.362l3.1.126m-4.492 4.475l1.234-2.017m.158-2.584l-.158 2.584m.886-1.418l-1.33-2.458-1.613-.883v0" fill="none" stroke-width=".265" stroke-linecap="round"/><ellipse ry="1.371" rx="1.377" cy="282.08" cx="11.289" fill="#fff" stroke-width=".2" stroke-linejoin="round"/><ellipse ry="1.371" rx="1.377" cx="8.916" cy="283.403" fill="#fff" stroke-width=".2" stroke-linejoin="round"/><ellipse ry="1.371" rx="1.377" cy="293.583" cx="10.941" fill="#fff" stroke-width=".2" stroke-linejoin="round"/><ellipse ry="1.371" rx="1.377" cy="286.521" cx="6.356" fill="#fff" stroke-width=".2" stroke-linejoin="round"/><ellipse ry="1.371" rx="1.377" cy="288.423" cx="7.926" fill="#fff" stroke-width=".2" stroke-linejoin="round"/><ellipse ry="1.371" rx="1.377" cx="13.946" cy="289.549" fill="#fff" stroke-width=".2" stroke-linejoin="round"/><ellipse ry="1.371" rx="1.377" cy="284.337" cx="10.709" fill="#fff" stroke-width=".2" stroke-linejoin="round"/><ellipse ry="1.371" rx="1.377" cy="286.636" cx="11.489" fill="#fff" stroke-width=".2" stroke-linejoin="round"/><ellipse ry="1.371" rx="1.377" cx="11.391" cy="291.751" fill="#fff" stroke-width=".2" stroke-linejoin="round"/><ellipse ry="1.371" rx="1.377" cx="7.91" cy="284.797" fill="#fff" stroke-width=".2" stroke-linejoin="round"/><ellipse ry="1.219" rx="1.224" cy="288.311" cx="11.871" fill="#fff" stroke-width=".2" stroke-linejoin="round"/><ellipse ry="1.219" rx="1.224" cx="10.194" cy="288.279" fill="#fff" stroke-width=".2" stroke-linejoin="round"/><ellipse ry="1.219" rx="1.224" cy="289.949" cx="9.371" fill="#fff" stroke-width=".2" stroke-linejoin="round"/><ellipse ry="1.219" rx="1.224" cx="9.814" cy="291.746" fill="#fff" stroke-width=".2" stroke-linejoin="round"/><ellipse ry="1.371" rx="1.377" cy="289.958" cx="11.542" fill="#fff" stroke-width=".2" stroke-linejoin="round"/><ellipse ry="1.219" rx="1.224" cy="290.926" cx="13.453" fill="#fff" stroke-width=".2" stroke-linejoin="round"/><ellipse ry="1.219" rx="1.224" cx="12.662" cy="293.006" fill="#fff" stroke-width=".2" stroke-linejoin="round"/><ellipse ry="1.371" rx="1.377" cy="283.277" cx="13.377" fill="#fff" stroke-width=".2" stroke-linejoin="round"/></g></svg>